#!OML:ASF I:\Actors\actors\Patient Classification 2\Patient 1\Session 1\actor1.ASF
:FULLY-SPECIFIED
:DEGREES
677
root -0.496341 18.6718 5.84108 2.02109 -2.81348 -1.53137
lowerback 2.92286 1.95366 -1.93498
upperback -3.62028 2.51452 0.145307
thorax -5.47847 1.32765 1.0401
lowerneck -13.4422 -3.0621 -2.52364
upperneck 12.982 -4.51172 5.4596
head 6.33873 -1.86747 1.72973
rclavicle -2.86001e-014 5.1684e-015
rhumerus -53.0155 -1.6039 -77.3389
rradius 81.4879
rwrist -7.1592
rhand -16.6637 -41.0625
rfingers 7.12502
rthumb 9.55984 -70.8256
lclavicle -2.86001e-014 5.1684e-015
lhumerus -47.8628 -6.89839 84.6251
lradius 85.2834
lwrist 28.6533
lhand -19.2658 -22.4678
lfingers 7.12502
lthumb 7.04856 7.39484
rfemur 0 0 0
rtibia 0
rfoot 0 0
rtoes 0
lfemur -3.48645 -5.60162 -13.7349
ltibia 21.6391
lfoot -25.5133 17.5736
ltoes -54.0277
678
root -0.498196 18.6705 5.84011 2.02176 -2.95333 -1.51707
lowerback 2.939 1.95628 -1.91395
upperback -3.60037 2.51943 0.155432
thorax -5.46644 1.32921 1.03832
lowerneck -13.5084 -3.01291 -2.39966
upperneck 12.9334 -4.43735 5.27863
head 6.32423 -1.83969 1.65822
rclavicle 7.70291e-016 -3.97569e-016
rhumerus -53.4213 -2.57423 -77.9799
rradius 78.6564
rwrist -7.24445
rhand -16.6425 -39.9473
rfingers 7.12502
rthumb 9.58029 -69.7095
lclavicle 7.70291e-016 -3.97569e-016
lhumerus -48.6672 -6.01032 85.4583
lradius 83.0918
lwrist 28.9842
lhand -20.0483 -20.8282
lfingers 7.12502
lthumb 6.2932 9.05836
rfemur 0 0 0
rtibia 0
rfoot 0 0
rtoes 0
lfemur -3.41732 -5.64396 -13.7709
ltibia 21.5755
lfoot -25.6132 17.6717
ltoes -53.9436
679
root -0.500129 18.6686 5.83925 1.96675 -3.07214 -1.48011
lowerback 2.96743 1.94884 -1.91604
upperback -3.54119 2.50939 0.1615
thorax -5.42057 1.32366 1.04687
lowerneck -13.5212 -2.96573 -2.15737
upperneck 12.8525 -4.37112 4.98603
head 6.28567 -1.82045 1.53173
rclavicle -7.40473e-015 -9.54166e-015
rhumerus -53.7087 -3.37637 -78.6143
rradius 75.8612
rwrist -6.73956
rhand -16.716 -39.7507
rfingers 7.12502
rthumb 9.50934 -69.5161
lclavicle -7.40473e-015 -9.54166e-015
lhumerus -49.268 -5.0779 86.1619
lradius 80.4358
lwrist 28.8135
lhand -20.3664 -20.5649
lfingers 7.12502
lthumb 5.98609 9.33053
rfemur 0 0 0
rtibia 0
rfoot 0 0
rtoes 0
lfemur -3.28644 -5.72752 -13.8339
ltibia 21.5036
lfoot -25.7383 17.7738
ltoes -53.9213
680
root -0.503459 18.6671 5.83708 1.89631 -3.15571 -1.46096
lowerback 3.06351 1.94011 -1.91116
upperback -3.50025 2.49644 0.165329
thorax -5.43201 1.31677 1.0466
lowerneck -13.5032 -2.94401 -2.07822
upperneck 12.7915 -4.34126 4.90094
head 6.25833 -1.8102 1.4949
rclavicle -7.62836e-015 -7.95139e-015
rhumerus -54.011 -4.01045 -79.1972
rradius 73.2753
rwrist -5.79683
rhand -16.8272 -39.5898
rfingers 7.12502
rthumb 9.40208 -69.3601
lclavicle -7.62836e-015 -7.95139e-015
lhumerus -49.769 -4.16007 86.7188
lradius 77.3048
lwrist 28.1435
lhand -20.0169 -22.037
lfingers 7.12502
lthumb 6.32348 7.84862
rfemur 0 0 0
rtibia 0
rfoot 0 0
rtoes 0
lfemur -3.14971 -5.74047 -13.8539
ltibia 21.4293
lfoot -25.8043 17.7897
ltoes -53.8692
681
root -0.505626 18.6667 5.83375 1.86382 -3.27748 -1.42221
lowerback 3.15163 1.96071 -1.9126
upperback -3.48213 2.52169 0.154807
thorax -5.46387 1.32906 1.03168
lowerneck -13.4787 -2.93107 -2.0673
upperneck 12.7444 -4.31992 4.8761
head 6.23756 -1.80243 1.48763
rclavicle -6.5102e-015 5.1684e-015
rhumerus -54.2418 -4.45098 -79.7238
rradius 70.7343
rwrist -4.64083
rhand -16.945 -39.0089
rfingers 7.12502
rthumb 9.28837 -68.7843
lclavicle -6.5102e-015 5.1684e-015
lhumerus -50.1806 -3.45635 87.3773
lradius 75.1006
lwrist 28.243
lhand -20.9484 -20.5148
lfingers 7.12502
lthumb 5.42418 9.39583
rfemur 0 0 0
rtibia 0
rfoot 0 0
rtoes 0
lfemur -3.0622 -5.67045 -13.8985
ltibia 21.3715
lfoot -25.8334 17.8129
ltoes -53.8034
682
root -0.506566 18.6666 5.83016 1.83356 -3.4209 -1.39223
lowerback 3.23502 1.97973 -1.89915
upperback -3.46909 2.54599 0.149179
thorax -5.49784 1.34045 1.0136
lowerneck -13.4178 -2.90873 -2.0284
upperneck 12.6892 -4.2916 4.8524
head 6.20724 -1.7905 1.47726
rclavicle -9.49197e-015 -1.98785e-015
rhumerus -54.2812 -4.83209 -80.1878
rradius 67.9171
rwrist -3.35687
rhand -17.1589 -37.9384
rfingers 7.12502
rthumb 9.08199 -67.7228
lclavicle -9.49197e-015 -1.98785e-015
lhumerus -50.4259 -2.75051 87.8291
lradius 72.3852
lwrist 27.6768
lhand -21.1824 -20.7116
lfingers 7.12502
lthumb 5.1982 9.20468
rfemur 0 0 0
rtibia 0
rfoot 0 0
rtoes 0
lfemur -2.98797 -5.62338 -13.9478
ltibia 21.3324
lfoot -25.8839 17.9021
ltoes -53.765
683
root -0.507572 18.6671 5.82636 1.78783 -3.54227 -1.41753
lowerback 3.32128 1.96955 -1.82301
upperback -3.44307 2.53548 0.154428
thorax -5.51612 1.33214 0.974852
lowerneck -13.3599 -2.88464 -1.99533
upperneck 12.621 -4.26248 4.85052
head 6.17395 -1.77687 1.47483
rclavicle 3.47873e-016 3.97569e-015
rhumerus -54.1385 -5.19599 -80.6047
rradius 64.9846
rwrist -2.05248
rhand -17.1506 -36.7033
rfingers 7.12502
rthumb 9.08998 -66.4875
lclavicle 3.47873e-016 3.97569e-015
lhumerus -50.6074 -2.05699 88.0776
lradius 69.3737
lwrist 26.5742
lhand -20.5933 -22.3996
lfingers 7.12502
lthumb 5.76704 7.50194
rfemur 0 0 0
rtibia 0
rfoot 0 0
rtoes 0
lfemur -2.90907 -5.6159 -13.935
ltibia 21.3037
lfoot -25.9021 18.0292
ltoes -53.7391
684
root -0.508346 18.6676 5.82329 1.77355 -3.634 -1.45331
lowerback 3.3241 1.94822 -1.71544
upperback -3.39544 2.51274 0.140945
thorax -5.46124 1.31566 0.90372
lowerneck -13.3689 -2.85878 -1.93185
upperneck 12.5803 -4.23335 4.821
head 6.15955 -1.76252 1.45785
rclavicle -2.00897e-014 -2.38542e-015
rhumerus -53.8733 -5.55809 -80.9842
rradius 62.1382
rwrist -0.952854
rhand -16.8908 -35.7071
rfingers 7.12502
rthumb 9.34067 -65.4802
lclavicle -2.00897e-014 -2.38542e-015
lhumerus -50.6804 -1.38361 88.3048
lradius 67.3219
lwrist 25.717
lhand -20.5104 -20.6071
lfingers 7.12502
lthumb 5.84701 9.29218
rfemur 0 0 0
rtibia 0
rfoot 0 0
rtoes 0
lfemur -2.87415 -5.57943 -13.901
ltibia 21.2896
lfoot -25.8973 18.0932
ltoes -53.76
685
root -0.509845 18.6678 5.82 1.79212 -3.70264 -1.44975
lowerback 3.27911 1.91649 -1.65181
upperback -3.35871 2.4736 0.113619
thorax -5.3915 1.29261 0.845583
lowerneck -13.3957 -2.82318 -1.87247
upperneck 12.6033 -4.19712 4.81771
head 6.16887 -1.74162 1.45025
rclavicle -1.35546e-014 -3.18055e-015
rhumerus -53.5883 -5.92328 -81.2916
rradius 59.3716
rwrist -0.0967105
rhand -16.4806 -34.6159
rfingers 7.12502
rthumb 9.73649 -64.3708
lclavicle -1.35546e-014 -3.18055e-015
lhumerus -50.5624 -0.480665 88.3293
lradius 64.8859
lwrist 24.6268
lhand -20.2219 -20.2217
lfingers 7.12502
lthumb 6.12558 9.66969
rfemur 0 0 0
rtibia 0
rfoot 0 0
rtoes 0
lfemur -2.88578 -5.50966 -13.8972
ltibia 21.2879
lfoot -25.9117 18.0522
ltoes -53.741
686
root -0.512471 18.668 5.81478 1.81562 -3.75111 -1.44313
lowerback 3.24956 1.87563 -1.60578
upperback -3.34335 2.42094 0.0888328
thorax -5.35369 1.26392 0.799919
lowerneck -13.3468 -2.78335 -1.81135
upperneck 12.6063 -4.15247 4.79706
head 6.15825 -1.71942 1.43849
rclavicle 1.86236e-014 -7.95139e-016
rhumerus -53.298 -6.33904 -81.5072
rradius 56.646
rwrist 0.686902
rhand -15.9682 -33.2815
rfingers 7.12502
rthumb 10.2309 -63.0127
lclavicle 1.86236e-014 -7.95139e-016
lhumerus -50.3312 0.521626 88.1953
lradius 62.2405
lwrist 23.4699
lhand -20.0885 -20.6429
lfingers 7.12502
lthumb 6.25442 9.24472
rfemur 0 0 0
rtibia 0
rfoot 0 0
rtoes 0
lfemur -2.9103 -5.44305 -13.8844
ltibia 21.2764
lfoot -25.9392 17.9889
ltoes -53.6902
687
root -0.515617 18.6686 5.80966 1.8284 -3.80238 -1.44773
lowerback 3.18062 1.85267 -1.55714
upperback -3.30033 2.3932 0.0648216
thorax -5.26515 1.24718 0.753495
lowerneck -13.2445 -2.74998 -1.76486
upperneck 12.5385 -4.10617 4.74743
head 6.11568 -1.7013 1.42074
rclavicle -2.19284e-014 3.97569e-016
rhumerus -52.9424 -6.88406 -81.6262
rradius 53.9576
rwrist 1.56924
rhand -15.6213 -32.3432
rfingers 7.12502
rthumb 10.5655 -62.0576
lclavicle -2.19284e-014 3.97569e-016
lhumerus -49.9337 1.51563 88.0088
lradius 59.5056
lwrist 22.3336
lhand -20.2608 -21.1745
lfingers 7.12502
lthumb 6.08803 8.718
rfemur 0 0 0
rtibia 0
rfoot 0 0
rtoes 0
lfemur -2.91949 -5.36697 -13.8597
ltibia 21.2527
lfoot -25.935 17.9758
ltoes -53.7537
688
root -0.517885 18.669 5.80686 1.8151 -3.89107 -1.40693
lowerback 3.09478 1.8607 -1.55519
upperback -3.2389 2.40445 0.0363213
thorax -5.15073 1.25126 0.726383
lowerneck -13.2066 -2.74008 -1.74964
upperneck 12.5526 -4.08421 4.66717
head 6.11075 -1.69668 1.39521
rclavicle -1.14053e-014 -1.98785e-015
rhumerus -52.5982 -7.48397 -81.648
rradius 51.3969
rwrist 2.59043
rhand -15.3922 -31.863
rfingers 7.12502
rthumb 10.7865 -61.5661
lclavicle -1.14053e-014 -1.98785e-015
lhumerus -49.4252 2.55091 87.7835
lradius 56.7222
lwrist 21.2696
lhand -20.615 -21.7169
lfingers 7.12502
lthumb 5.7461 8.1852
rfemur 0 0 0
rtibia 0
rfoot 0 0
rtoes 0
lfemur -2.88926 -5.28595 -13.902
ltibia 21.2333
lfoot -25.918 18.0156
ltoes -53.8308
689
root -0.518677 18.6697 5.80488 1.81436 -3.98547 -1.38806
lowerback 3.04046 1.88284 -1.53168
upperback -3.21464 2.43625 0.0338312
thorax -5.09404 1.26576 0.710681
lowerneck -13.1947 -2.7592 -1.77869
upperneck 12.6622 -4.10043 4.60805
head 6.14322 -1.70924 1.37955
rclavicle 1.09456e-014 -3.97569e-015
rhumerus -52.3603 -8.0496 -81.5574
rradius 49.0551
rwrist 3.66966
rhand -15.065 -31.5763
rfingers 7.12502
rthumb 11.1021 -61.2626
lclavicle 1.09456e-014 -3.97569e-015
lhumerus -48.9011 3.71219 87.4803
lradius 53.9812
lwrist 20.2381
lhand -20.9246 -22.0512
lfingers 7.12502
lthumb 5.4472 7.85879
rfemur 0 0 0
rtibia 0
rfoot 0 0
rtoes 0
lfemur -2.86584 -5.27999 -13.9348
ltibia 21.2223
lfoot -25.9634 18.0939
ltoes -53.8215
690
root -0.5197 18.6711 5.8014 1.83973 -4.03895 -1.42062
lowerback 2.99783 1.90229 -1.47441
upperback -3.20786 2.46736 0.0614274
thorax -5.06211 1.27953 0.706523
lowerneck -13.1391 -2.78371 -1.87878
upperneck 12.7297 -4.12329 4.64447
head 6.15869 -1.72216 1.40575
rclavicle -2.65253e-014 -3.57812e-015
rhumerus -52.1779 -8.62978 -81.3501
rradius 47.0076
rwrist 4.97693
rhand -14.2438 -31.9701
rfingers 7.12502
rthumb 11.894 -61.6123
lclavicle -2.65253e-014 -3.57812e-015
lhumerus -48.2924 4.97065 87.1086
lradius 51.2627
lwrist 19.0957
lhand -21.2438 -22.1471
lfingers 7.12502
lthumb 5.13897 7.77062
rfemur 0 0 0
rtibia 0
rfoot 0 0
rtoes 0
lfemur -2.88395 -5.34554 -13.9079
ltibia 21.2182
lfoot -26.0178 18.1807
ltoes -53.783
691
root -0.521766 18.6721 5.79619 1.86373 -4.03847 -1.42894
lowerback 2.95053 1.91142 -1.4496
upperback -3.18135 2.48217 0.0705444
thorax -5.00709 1.28583 0.70327
lowerneck -13.0684 -2.80482 -1.95792
upperneck 12.7257 -4.14454 4.69315
head 6.14881 -1.73355 1.43291
rclavicle -4.60062e-014 -4.57205e-015
rhumerus -52.022 -9.30273 -81.0976
rradius 45.2563
rwrist 6.57235
rhand -13.0213 -32.7564
rfingers 7.12502
rthumb 13.0727 -62.3267
lclavicle -4.60062e-014 -4.57205e-015
lhumerus -47.5892 6.1716 86.6847
lradius 48.5851
lwrist 17.8415
lhand -21.6108 -22.2033
lfingers 7.12502
lthumb 4.78459 7.72264
rfemur 0 0 0
rtibia 0
rfoot 0 0
rtoes 0
lfemur -2.92847 -5.44565 -13.8986
ltibia 21.2258
lfoot -26.0246 18.2754
ltoes -53.7885
692
root -0.524703 18.6729 5.79115 1.88583 -4.00877 -1.45603
lowerback 2.89107 1.90428 -1.41531
upperback -3.14818 2.47608 0.0835969
thorax -4.9374 1.28143 0.700942
lowerneck -12.9379 -2.81407 -1.99044
upperneck 12.6484 -4.14874 4.69483
head 6.10291 -1.74009 1.43994
rclavicle 7.40473e-015 7.55382e-015
rhumerus -51.9888 -9.92551 -80.9076
rradius 43.8107
rwrist 7.82699
rhand -12.3719 -32.942
rfingers 7.12502
rthumb 13.6986 -62.4711
lclavicle 7.40473e-015 7.55382e-015
lhumerus -46.9018 7.36893 86.1903
lradius 46.0318
lwrist 16.4036
lhand -21.7945 -22.1976
lfingers 7.12502
lthumb 4.60717 7.73225
rfemur 0 0 0
rtibia 0
rfoot 0 0
rtoes 0
lfemur -2.97826 -5.53807 -13.8597
ltibia 21.2364
lfoot -26.0091 18.3672
ltoes -53.8598
